<svg xmlns="http://www.w3.org/2000/svg" viewBox="0 0 600 400" width="600" height="400">
  <defs>
    <linearGradient id="bg3" x1="0%" y1="0%" x2="100%" y2="100%">
      <stop offset="0%" style="stop-color:#f9f5ff;stop-opacity:1" />
      <stop offset="100%" style="stop-color:#f0f0ff;stop-opacity:1" />
    </linearGradient>
    <linearGradient id="skin3" x1="0%" y1="0%" x2="100%" y2="100%">
      <stop offset="0%" style="stop-color:#b8703a;stop-opacity:1" />
      <stop offset="100%" style="stop-color:#8b4513;stop-opacity:1" />
    </linearGradient>
    <linearGradient id="beard_full3" x1="0%" y1="0%" x2="0%" y2="100%">
      <stop offset="0%" style="stop-color:#0d0d0d;stop-opacity:1" />
      <stop offset="100%" style="stop-color:#1a0a00;stop-opacity:1" />
    </linearGradient>
    <linearGradient id="divider3" x1="0%" y1="0%" x2="0%" y2="100%">
      <stop offset="0%" style="stop-color:#7c3aed;stop-opacity:0.8" />
      <stop offset="100%" style="stop-color:#5b21b6;stop-opacity:0.8" />
    </linearGradient>
  </defs>

  <!-- Background -->
  <rect width="600" height="400" fill="url(#bg3)"/>
  <rect x="0" y="0" width="295" height="400" fill="#f5f5f5"/>
  <rect x="305" y="0" width="295" height="400" fill="#ffffff"/>

  <!-- Divider -->
  <rect x="291" y="0" width="18" height="400" fill="url(#divider3)"/>
  <text x="300" y="210" font-family="Arial,sans-serif" font-size="11" font-weight="bold" fill="white" text-anchor="middle" transform="rotate(-90,300,210)">BEFORE / AFTER</text>

  <!-- ===== BEFORE SIDE (Left) ===== -->
  <rect x="15" y="12" width="70" height="24" rx="12" fill="#e5e7eb"/>
  <text x="50" y="28" font-family="Arial,sans-serif" font-size="11" font-weight="bold" fill="#6b7280" text-anchor="middle">BEFORE</text>

  <!-- Head (Indian male, broader jaw) -->
  <ellipse cx="148" cy="138" rx="72" ry="80" fill="url(#skin3)"/>
  <ellipse cx="148" cy="100" rx="37" ry="22" fill="#c98040" opacity="0.4"/>

  <!-- Eyes -->
  <ellipse cx="126" cy="126" rx="11" ry="7.5" fill="#1a0f00"/>
  <ellipse cx="170" cy="126" rx="11" ry="7.5" fill="#1a0f00"/>
  <ellipse cx="126" cy="125" rx="4.5" ry="4.5" fill="#050200"/>
  <ellipse cx="170" cy="125" rx="4.5" ry="4.5" fill="#050200"/>
  <ellipse cx="124" cy="125" rx="2" ry="2" fill="white" opacity="0.8"/>
  <ellipse cx="168" cy="125" rx="2" ry="2" fill="white" opacity="0.8"/>

  <!-- Eyebrows -->
  <path d="M113 115 Q126 108 141 111" stroke="#0d0500" stroke-width="4" fill="none" stroke-linecap="round"/>
  <path d="M156 111 Q171 108 183 115" stroke="#0d0500" stroke-width="4" fill="none" stroke-linecap="round"/>

  <!-- Nose -->
  <path d="M142 148 Q148 158 154 148" stroke="#7a3c12" stroke-width="2" fill="none"/>
  <ellipse cx="142" cy="154" rx="5.5" ry="3.5" fill="#7a3c12" opacity="0.4"/>
  <ellipse cx="154" cy="154" rx="5.5" ry="3.5" fill="#7a3c12" opacity="0.4"/>

  <!-- Mouth line -->
  <path d="M134 172 Q148 182 162 172" stroke="#6b2f10" stroke-width="2" fill="none" stroke-linecap="round"/>
  <path d="M136 172 Q148 169 160 172 Q148 178 136 172Z" fill="#7a3a22" opacity="0.6"/>

  <!-- BEFORE: Very sparse/thin beard -->
  <!-- Just a few scattered hairs on chin and jaw -->
  <circle cx="145" cy="192" r="2" fill="#0d0500" opacity="0.45"/>
  <circle cx="153" cy="195" r="1.8" fill="#0d0500" opacity="0.4"/>
  <circle cx="138" cy="190" r="1.5" fill="#0d0500" opacity="0.3"/>
  <circle cx="158" cy="191" r="2" fill="#0d0500" opacity="0.4"/>
  <circle cx="148" cy="200" r="2.2" fill="#0d0500" opacity="0.45"/>
  <circle cx="130" cy="195" r="1.5" fill="#0d0500" opacity="0.3"/>
  <circle cx="165" cy="196" r="1.5" fill="#0d0500" opacity="0.3"/>
  <!-- Left jaw -->
  <circle cx="105" cy="175" r="1.8" fill="#0d0500" opacity="0.3"/>
  <circle cx="112" cy="185" r="1.5" fill="#0d0500" opacity="0.25"/>
  <circle cx="118" cy="172" r="1.8" fill="#0d0500" opacity="0.3"/>
  <circle cx="107" cy="165" r="1.5" fill="#0d0500" opacity="0.2"/>
  <!-- Right jaw -->
  <circle cx="191" cy="175" r="1.8" fill="#0d0500" opacity="0.3"/>
  <circle cx="184" cy="185" r="1.5" fill="#0d0500" opacity="0.25"/>
  <circle cx="178" cy="172" r="1.8" fill="#0d0500" opacity="0.3"/>
  <!-- Moustache sparse -->
  <circle cx="139" cy="165" r="1.5" fill="#0d0500" opacity="0.35"/>
  <circle cx="148" cy="164" r="1.8" fill="#0d0500" opacity="0.4"/>
  <circle cx="157" cy="165" r="1.5" fill="#0d0500" opacity="0.35"/>

  <!-- Hair on head -->
  <ellipse cx="148" cy="72" rx="72" ry="32" fill="#0d0500"/>
  <path d="M76 78 Q81 46 148 44 Q215 46 220 78" fill="#0d0500"/>
  <!-- Side burns sparse -->
  <circle cx="80" cy="148" r="2" fill="#0d0500" opacity="0.3"/>
  <circle cx="82" cy="158" r="1.5" fill="#0d0500" opacity="0.25"/>
  <circle cx="216" cy="148" r="2" fill="#0d0500" opacity="0.3"/>
  <circle cx="214" cy="158" r="1.5" fill="#0d0500" opacity="0.25"/>

  <!-- Neck + shirt -->
  <rect x="126" y="210" width="44" height="38" rx="9" fill="url(#skin3)"/>
  <path d="M85 248 Q100 238 148 235 Q196 238 211 248 L220 285 L76 285 Z" fill="#1f2937"/>

  <!-- Annotation -->
  <line x1="107" y1="162" x2="65" y2="148" stroke="#ef4444" stroke-width="1.5" opacity="0.7"/>
  <rect x="15" y="138" width="50" height="22" rx="5" fill="#fee2e2"/>
  <text x="40" y="151" font-family="Arial,sans-serif" font-size="9" fill="#dc2626" text-anchor="middle" font-weight="bold">No Sideburn</text>

  <!-- Before bottom label -->
  <text x="148" y="308" font-family="Arial,sans-serif" font-size="13" font-weight="bold" fill="#374151" text-anchor="middle">Thin &amp; Uneven Beard</text>
  <text x="148" y="323" font-family="Arial,sans-serif" font-size="10" fill="#9ca3af" text-anchor="middle">Pre-Procedure</text>

  <!-- ===== AFTER SIDE (Right) ===== -->
  <rect x="515" y="12" width="68" height="24" rx="12" fill="#7c3aed"/>
  <text x="549" y="28" font-family="Arial,sans-serif" font-size="11" font-weight="bold" fill="white" text-anchor="middle">AFTER</text>

  <!-- Head (Indian male - after) -->
  <ellipse cx="452" cy="138" rx="72" ry="80" fill="url(#skin3)"/>
  <ellipse cx="452" cy="100" rx="37" ry="22" fill="#c98040" opacity="0.4"/>

  <!-- Eyes -->
  <ellipse cx="430" cy="126" rx="11" ry="7.5" fill="#1a0f00"/>
  <ellipse cx="474" cy="126" rx="11" ry="7.5" fill="#1a0f00"/>
  <ellipse cx="430" cy="125" rx="4.5" ry="4.5" fill="#050200"/>
  <ellipse cx="474" cy="125" rx="4.5" ry="4.5" fill="#050200"/>
  <ellipse cx="428" cy="125" rx="2" ry="2" fill="white" opacity="0.8"/>
  <ellipse cx="472" cy="125" rx="2" ry="2" fill="white" opacity="0.8"/>

  <!-- Eyebrows -->
  <path d="M417 115 Q430 108 445 111" stroke="#0d0500" stroke-width="4" fill="none" stroke-linecap="round"/>
  <path d="M460 111 Q475 108 487 115" stroke="#0d0500" stroke-width="4" fill="none" stroke-linecap="round"/>

  <!-- Nose -->
  <path d="M446 148 Q452 158 458 148" stroke="#7a3c12" stroke-width="2" fill="none"/>
  <ellipse cx="446" cy="154" rx="5.5" ry="3.5" fill="#7a3c12" opacity="0.4"/>
  <ellipse cx="458" cy="154" rx="5.5" ry="3.5" fill="#7a3c12" opacity="0.4"/>

  <!-- Mouth -->
  <path d="M438 172 Q452 182 466 172" stroke="#6b2f10" stroke-width="2" fill="none" stroke-linecap="round"/>
  <path d="M440 172 Q452 169 464 172 Q452 178 440 172Z" fill="#7a3a22" opacity="0.6"/>

  <!-- AFTER: Full stylish Indian beard (Shahid/Ranveer style) -->
  <!-- Main beard body -->
  <path d="M381 172 Q386 162 400 160 Q418 156 430 155 Q452 153 474 155 Q486 156 504 160 Q518 162 523 172 Q530 192 524 215 Q514 235 507 245 Q494 258 478 264 Q465 270 452 271 Q439 270 426 264 Q410 258 397 245 Q390 235 380 215 Q374 192 381 172Z" fill="url(#beard_full3)"/>

  <!-- Sideburns (full) -->
  <path d="M381 172 Q378 155 382 140 Q388 128 395 130 Q400 140 398 158 Q392 165 381 172Z" fill="#0d0500"/>
  <path d="M523 172 Q526 155 522 140 Q516 128 509 130 Q504 140 506 158 Q512 165 523 172Z" fill="#0d0500"/>

  <!-- Beard detail texture -->
  <path d="M422 162 L420 215" stroke="#2a1a0a" stroke-width="0.8" opacity="0.4"/>
  <path d="M434 158 L432 225" stroke="#2a1a0a" stroke-width="0.8" opacity="0.4"/>
  <path d="M446 155 L445 235" stroke="#2a1a0a" stroke-width="0.8" opacity="0.4"/>
  <path d="M458 155 L458 235" stroke="#2a1a0a" stroke-width="0.8" opacity="0.4"/>
  <path d="M470 158 L472 225" stroke="#2a1a0a" stroke-width="0.8" opacity="0.4"/>
  <path d="M482 162 L486 215" stroke="#2a1a0a" stroke-width="0.8" opacity="0.4"/>

  <!-- Thick moustache -->
  <path d="M430 162 Q452 152 474 162 Q468 172 452 169 Q436 172 430 162Z" fill="#050200"/>
  <!-- Moustache detail -->
  <path d="M435 163 Q452 157 469 163" stroke="#1a0a00" stroke-width="1.5" fill="none" opacity="0.6"/>

  <!-- Chin/goatee emphasis -->
  <path d="M444 248 Q452 262 460 248 Q455 255 452 258 Q449 255 444 248Z" fill="#050200"/>

  <!-- Beard sheen -->
  <path d="M430 185 Q445 178 452 181 Q459 178 474 185" stroke="#2a1a0a" stroke-width="1.5" fill="none" opacity="0.4"/>

  <!-- Hair on head -->
  <ellipse cx="452" cy="72" rx="72" ry="32" fill="#0d0500"/>
  <path d="M380 78 Q385 46 452 44 Q519 46 524 78" fill="#0d0500"/>

  <!-- Neck + shirt -->
  <rect x="430" y="264" width="44" height="18" rx="9" fill="url(#skin3)"/>
  <path d="M389 280 Q404 270 452 267 Q500 270 515 280 L524 315 L380 315 Z" fill="#1f2937"/>

  <!-- After bottom label -->
  <text x="452" y="308" font-family="Arial,sans-serif" font-size="13" font-weight="bold" fill="#7c3aed" text-anchor="middle">Stylish Full Beard</text>
  <text x="452" y="323" font-family="Arial,sans-serif" font-size="10" fill="#9ca3af" text-anchor="middle">8 Months Post-Procedure</text>

  <!-- Bottom strip -->
  <rect x="0" y="338" width="600" height="62" fill="#1f2937"/>
  <text x="300" y="359" font-family="Arial,sans-serif" font-size="12" font-weight="bold" fill="white" text-anchor="middle">DENCESPOT CLINIC — Beard Transplant Result</text>
  <text x="300" y="375" font-family="Arial,sans-serif" font-size="10" fill="#9ca3af" text-anchor="middle">Indian Male | Age 32 | 2200 Grafts | FUE + Sideburn Restoration</text>
  <text x="253" y="393" font-family="Arial,sans-serif" font-size="12" fill="#fbbf24">★★★★★</text>
  <text x="310" y="393" font-family="Arial,sans-serif" font-size="9" fill="#9ca3af" text-anchor="middle">Verified Patient</text>
</svg>
